<?xml version="1.0" standalone="no"?>
<svg xmlns="http://www.w3.org/2000/svg" width="1120" height="547"><g transform="translate(70,20)"><g class="x axis" transform="translate(0,400)" fill="none" font-size="10" font-family="sans-serif" text-anchor="middle"><path class="domain" stroke="#000" d="M0.5,6V0.5H1000.5V6"/><g class="tick" opacity="1" transform="translate(67.90123456790117,0)"><line stroke="#000" y2="6"/><text fill="#000" y="9" dy="-0.5em" dx="-.8em" style="text-anchor: end;" transform="rotate(-90)">bocandei (n=8)</text></g><g class="tick" opacity="1" transform="translate(191.35802469135797,0)"><line stroke="#000" y2="6"/><text fill="#000" y="9" dy="-0.5em" dx="-.8em" style="text-anchor: end;" transform="rotate(-90)">ferruginea (n=10)</text></g><g class="tick" opacity="1" transform="translate(314.8148148148148,0)"><line stroke="#000" y2="6"/><text fill="#000" y="9" dy="-0.5em" dx="-.8em" style="text-anchor: end;" transform="rotate(-90)">lendliana (n=3)</text></g><g class="tick" opacity="1" transform="translate(438.27160493827154,0)"><line stroke="#000" y2="6"/><text fill="#000" y="9" dy="-0.5em" dx="-.8em" style="text-anchor: end;" transform="rotate(-90)">schmidti (n=10)</text></g><g class="tick" opacity="1" transform="translate(561.7283950617284,0)"><line stroke="#000" y2="6"/><text fill="#000" y="9" dy="-0.5em" dx="-.8em" style="text-anchor: end;" transform="rotate(-90)">spp. (n=4)</text></g><g class="tick" opacity="1" transform="translate(685.1851851851851,0)"><line stroke="#000" y2="6"/><text fill="#000" y="9" dy="-0.5em" dx="-.8em" style="text-anchor: end;" transform="rotate(-90)">spp_1 (n=8)</text></g><g class="tick" opacity="1" transform="translate(808.6419753086419,0)"><line stroke="#000" y2="6"/><text fill="#000" y="9" dy="-0.5em" dx="-.8em" style="text-anchor: end;" transform="rotate(-90)">spp_2 (n=2)</text></g><g class="tick" opacity="1" transform="translate(932.0987654320987,0)"><line stroke="#000" y2="6"/><text fill="#000" y="9" dy="-0.5em" dx="-.8em" style="text-anchor: end;" transform="rotate(-90)">togoensis (n=10)</text></g></g><g class="y axis" fill="none" font-size="10" font-family="sans-serif" text-anchor="end"><path class="domain" stroke="#000" d="M-6,400.5H0.5V0.5H-6"/><g class="tick" opacity="1" transform="translate(0,400.5)"><line stroke="#000" x2="-6"/><text fill="#000" x="-9" dy="0.32em">0.15</text></g><g class="tick" opacity="1" transform="translate(0,364.1363636363636)"><line stroke="#000" x2="-6"/><text fill="#000" x="-9" dy="0.32em">0.20</text></g><g class="tick" opacity="1" transform="translate(0,327.77272727272725)"><line stroke="#000" x2="-6"/><text fill="#000" x="-9" dy="0.32em">0.25</text></g><g class="tick" opacity="1" transform="translate(0,291.4090909090909)"><line stroke="#000" x2="-6"/><text fill="#000" x="-9" dy="0.32em">0.30</text></g><g class="tick" opacity="1" transform="translate(0,255.04545454545453)"><line stroke="#000" x2="-6"/><text fill="#000" x="-9" dy="0.32em">0.35</text></g><g class="tick" opacity="1" transform="translate(0,218.68181818181816)"><line stroke="#000" x2="-6"/><text fill="#000" x="-9" dy="0.32em">0.40</text></g><g class="tick" opacity="1" transform="translate(0,182.31818181818176)"><line stroke="#000" x2="-6"/><text fill="#000" x="-9" dy="0.32em">0.45</text></g><g class="tick" opacity="1" transform="translate(0,145.95454545454547)"><line stroke="#000" x2="-6"/><text fill="#000" x="-9" dy="0.32em">0.50</text></g><g class="tick" opacity="1" transform="translate(0,109.59090909090907)"><line stroke="#000" x2="-6"/><text fill="#000" x="-9" dy="0.32em">0.55</text></g><g class="tick" opacity="1" transform="translate(0,73.22727272727269)"><line stroke="#000" x2="-6"/><text fill="#000" x="-9" dy="0.32em">0.60</text></g><g class="tick" opacity="1" transform="translate(0,36.86363636363632)"><line stroke="#000" x2="-6"/><text fill="#000" x="-9" dy="0.32em">0.65</text></g><g class="tick" opacity="1" transform="translate(0,0.5)"><line stroke="#000" x2="-6"/><text fill="#000" x="-9" dy="0.32em">0.70</text></g></g><text class="x label" text-anchor="middle" transform="translate(500,517)" style="font: 12px sans-serif;">species</text><text class="y label" text-anchor="middle" transform="translate(-50,200)rotate(-90)" style="font: 12px sans-serif;">pielou_evenness</text><line class="center" x1="67.90123456790117" y1="382.7983586181818" x2="67.90123456790117" y2="82.37265767272726" stroke-dasharray="2,2" stroke-width="1" stroke="black"/><line class="center" x1="191.35802469135797" y1="369.2939112" x2="191.35802469135797" y2="49.14780334545446" stroke-dasharray="2,2" stroke-width="1" stroke="black"/><line class="center" x1="314.8148148148148" y1="301.1831456" x2="314.8148148148148" y2="15.453537963636336" stroke-dasharray="2,2" stroke-width="1" stroke="black"/><line class="center" x1="438.27160493827154" y1="373.4539271272727" x2="438.27160493827154" y2="34.54010138181809" stroke-dasharray="2,2" stroke-width="1" stroke="black"/><line class="center" x1="561.7283950617284" y1="298.3131986181818" x2="561.7283950617284" y2="46.324057818181814" stroke-dasharray="2,2" stroke-width="1" stroke="black"/><line class="center" x1="685.1851851851851" y1="321.2430789090909" x2="685.1851851851851" y2="68.78854603636364" stroke-dasharray="2,2" stroke-width="1" stroke="black"/><line class="center" x1="808.6419753086419" y1="103.2749248727273" x2="808.6419753086419" y2="73.25654654545446" stroke-dasharray="2,2" stroke-width="1" stroke="black"/><line class="center" x1="932.0987654320987" y1="185.18476567272722" x2="932.0987654320987" y2="47.02843723636363" stroke-dasharray="2,2" stroke-width="1" stroke="black"/><g class="outlier" transform="translate(67.90123456790117,0)"/><g class="outlier" transform="translate(191.35802469135797,0)"/><g class="outlier" transform="translate(314.8148148148148,0)"/><g class="outlier" transform="translate(438.27160493827154,0)"/><g class="outlier" transform="translate(561.7283950617284,0)"/><g class="outlier" transform="translate(685.1851851851851,0)"/><g class="outlier" transform="translate(808.6419753086419,0)"/><g class="outlier" transform="translate(932.0987654320987,0)"><circle r="4" stroke-width="1" stroke="black" stroke-opacity="0.3" fill="black" fill-opacity="0.33" cx="0" cy="314.3348842181818"/></g><rect class="box" x="12.345679012345613" y="120.94869690909087" width="111.11111111111111" height="207.72315501818184" fill="white" stroke-width="1" stroke="black"/><rect class="box" x="135.80246913580243" y="86.41167427272734" width="111.11111111111111" height="171.8618995454545" fill="white" stroke-width="1" stroke="black"/><rect class="box" x="259.25925925925924" y="87.79813465454544" width="111.11111111111111" height="142.8648038181818" fill="white" stroke-width="1" stroke="black"/><rect class="box" x="382.716049382716" y="159.78420189090906" width="111.11111111111111" height="104.0650370363636" fill="white" stroke-width="1" stroke="black"/><rect class="box" x="506.1728395061728" y="91.99312021818179" width="111.11111111111111" height="149.72725847272724" fill="white" stroke-width="1" stroke="black"/><rect class="box" x="629.6296296296296" y="98.2079996" width="111.11111111111111" height="102.78306854545454" fill="white" stroke-width="1" stroke="black"/><rect class="box" x="753.0864197530864" y="80.76114112727271" width="111.11111111111111" height="15.009189163636336" fill="white" stroke-width="1" stroke="black"/><rect class="box" x="876.5432098765432" y="86.59297985454543" width="111.11111111111111" height="41.205354527272675" fill="white" stroke-width="1" stroke="black"/><line class="median" x1="12.345679012345613" y1="213.71350120000002" x2="123.45679012345673" y2="213.71350120000002" stroke-width="1" stroke="black"/><line class="median" x1="135.80246913580243" y1="150.9832692727273" x2="246.91358024691354" y2="150.9832692727273" stroke-width="1" stroke="black"/><line class="median" x1="259.25925925925924" y1="160.14273134545448" x2="370.3703703703703" y2="160.14273134545448" stroke-width="1" stroke="black"/><line class="median" x1="382.716049382716" y1="206.97500178181818" x2="493.82716049382714" y2="206.97500178181818" stroke-width="1" stroke="black"/><line class="median" x1="506.1728395061728" y1="165.03612320000002" x2="617.283950617284" y2="165.03612320000002" stroke-width="1" stroke="black"/><line class="median" x1="629.6296296296296" y1="157.48765450909085" x2="740.7407407407406" y2="157.48765450909085" stroke-width="1" stroke="black"/><line class="median" x1="753.0864197530864" y1="88.2657357090909" x2="864.1975308641975" y2="88.2657357090909" stroke-width="1" stroke="black"/><line class="median" x1="876.5432098765432" y1="101.68530323636367" x2="987.6543209876543" y2="101.68530323636367" stroke-width="1" stroke="black"/><g class="whisker" transform="translate(40.12345679012339,0)"><line class="median" x1="0" y1="382.7983586181818" x2="55.55555555555556" y2="382.7983586181818" stroke-width="1" stroke="black"/><line class="median" x1="0" y1="82.37265767272726" x2="55.55555555555556" y2="82.37265767272726" stroke-width="1" stroke="black"/></g><g class="whisker" transform="translate(163.5802469135802,0)"><line class="median" x1="0" y1="369.2939112" x2="55.55555555555556" y2="369.2939112" stroke-width="1" stroke="black"/><line class="median" x1="0" y1="49.14780334545446" x2="55.55555555555556" y2="49.14780334545446" stroke-width="1" stroke="black"/></g><g class="whisker" transform="translate(287.037037037037,0)"><line class="median" x1="0" y1="301.1831456" x2="55.55555555555556" y2="301.1831456" stroke-width="1" stroke="black"/><line class="median" x1="0" y1="15.453537963636336" x2="55.55555555555556" y2="15.453537963636336" stroke-width="1" stroke="black"/></g><g class="whisker" transform="translate(410.49382716049377,0)"><line class="median" x1="0" y1="373.4539271272727" x2="55.55555555555556" y2="373.4539271272727" stroke-width="1" stroke="black"/><line class="median" x1="0" y1="34.54010138181809" x2="55.55555555555556" y2="34.54010138181809" stroke-width="1" stroke="black"/></g><g class="whisker" transform="translate(533.9506172839506,0)"><line class="median" x1="0" y1="298.3131986181818" x2="55.55555555555556" y2="298.3131986181818" stroke-width="1" stroke="black"/><line class="median" x1="0" y1="46.324057818181814" x2="55.55555555555556" y2="46.324057818181814" stroke-width="1" stroke="black"/></g><g class="whisker" transform="translate(657.4074074074074,0)"><line class="median" x1="0" y1="321.2430789090909" x2="55.55555555555556" y2="321.2430789090909" stroke-width="1" stroke="black"/><line class="median" x1="0" y1="68.78854603636364" x2="55.55555555555556" y2="68.78854603636364" stroke-width="1" stroke="black"/></g><g class="whisker" transform="translate(780.8641975308642,0)"><line class="median" x1="0" y1="103.2749248727273" x2="55.55555555555556" y2="103.2749248727273" stroke-width="1" stroke="black"/><line class="median" x1="0" y1="73.25654654545446" x2="55.55555555555556" y2="73.25654654545446" stroke-width="1" stroke="black"/></g><g class="whisker" transform="translate(904.320987654321,0)"><line class="median" x1="0" y1="185.18476567272722" x2="55.55555555555556" y2="185.18476567272722" stroke-width="1" stroke="black"/><line class="median" x1="0" y1="47.02843723636363" x2="55.55555555555556" y2="47.02843723636363" stroke-width="1" stroke="black"/></g></g></svg>